<?xml version="1.0" encoding="utf-8"?>
<svg xmlns="http://www.w3.org/2000/svg" style="margin: auto; background: rgb(255, 255, 255); display: block; shape-rendering: auto;" width="360" height="96" preserveAspectRatio="xMidYMid">
  <style type="text/css">
  text {
    text-anchor: middle; font-size: 80px; opacity: 0;
  }
</style>
  <g style="transform-origin:77.5px 48px;transform:scale(1)">
    <g transform="translate(77.5,48)">
      <g transform="translate(0,0)">
        <g class="path" style="transform: scale(0.91); transform-origin: -46.64px -5.50304px; animation: 1.5s linear -0.594s infinite normal forwards running breath-c7820af4-0a1a-426d-a3b8-283954425978;">
          <path d="M15.84-35.44L15.84-35.44L15.84-34.32L30-34.32L30-34.48L30-34.48Q30.08-36.40 30.08-39.32L30.08-39.32L30.08-39.32Q30.08-42.24 30-44.44L30-44.44L30-44.44Q29.92-46.64 29.84-48.16L29.84-48.16L29.84-48.16Q29.76-49.68 29.64-50.80L29.64-50.80L29.64-50.80Q29.52-51.92 29.44-52.52L29.44-52.52L29.44-52.52Q29.36-53.12 29.36-53.60L29.36-53.60L29.36-53.60Q29.36-54.08 30.24-54.72L30.24-54.72L30.24-54.72Q34.08-57.28 38.80-57.28L38.80-57.28L38.80-57.28Q41.76-57.28 41.76-56.24L41.76-56.24L41.76-56.24Q41.76-56.16 41.60-55.36L41.60-55.36L41.60-55.36Q40.08-47.76 39.68-34.32L39.68-34.32L39.68-34.32Q39.44-20.88 39.44-19.92L39.44-19.92L39.44-19.92Q39.44-7.52 40.88-2.72L40.88-2.72L40.88-2.72Q41.12-2.08 41.12-1.64L41.12-1.64L41.12-1.64Q41.12-1.20 40.48-0.64L40.48-0.64L40.48-0.64Q37.52 1.28 32.80 1.28L32.80 1.28L32.80 1.28Q29.76 1.28 29.36-0.80L29.36-0.80L29.36-0.80Q29.12-1.92 29.12-4.28L29.12-4.28L29.12-4.28Q29.12-6.64 29.40-11.52L29.40-11.52L29.40-11.52Q29.68-16.40 29.84-28.56L29.84-28.56L15.84-28.56L15.84-28.56Q15.84-10.32 16.96-2.96L16.96-2.96L16.96-2.96Q16.96-1.04 13.28 0.20L13.28 0.20L13.28 0.20Q9.60 1.44 7.20 1.44L7.20 1.44L7.20 1.44Q4.80 1.44 4.80 0.72L4.80 0.72L4.80 0.72Q4.80 0.24 5.04-0.48L5.04-0.48L5.04-0.48Q6.56-3.84 6.56-27.52L6.56-27.52L6.56-28.56L1.84-28.56L1.84-28.56Q1.20-28.56 1.20-29.04L1.20-29.04L1.20-29.04Q1.20-29.20 1.52-30.28L1.52-30.28L1.52-30.28Q1.84-31.36 3-32.80L3-32.80L3-32.80Q4.16-34.24 5.60-34.24L5.60-34.24L6.48-34.24L6.48-34.24Q6.48-50 4.64-52.40L4.64-52.40L4.32-52.88L4.32-52.88Q3.84-53.28 3.84-53.88L3.84-53.88L3.84-53.88Q3.84-54.48 4.72-54.88L4.72-54.88L4.72-54.88Q5.92-55.60 9-56.32L9-56.32L9-56.32Q12.08-57.04 14.56-57.04L14.56-57.04L14.56-57.04Q17.04-57.04 17.04-55.92L17.04-55.92L17.04-55.68L17.04-55.68Q16.08-47.36 15.84-35.44" fill="#15212b" stroke="none" stroke-width="none" transform="translate(-68.11996459960938,22.416959350585948)" style="fill: rgb(21, 33, 43);"></path>
        </g>
        <g class="path" style="transform: scale(0.91); transform-origin: -9.27996px 5.01696px; animation: 1.5s linear -0.528s infinite normal forwards running breath-c7820af4-0a1a-426d-a3b8-283954425978;">
          <path d="M53.92-20.32L53.92-20.32L54-18.32L54-18.32Q54-17.84 54.64-17.84L54.64-17.84L54.64-17.84Q57.20-18.08 59.12-19.16L59.12-19.16L59.12-19.16Q61.04-20.24 62-21.60L62-21.60L62-21.60Q63.92-24.56 64.08-26.72L64.08-26.72L64.16-27.68L64.16-27.68Q64.16-32 60.72-32L60.72-32L60.72-32Q58.16-32 56.56-29.76L56.56-29.76L56.56-29.76Q53.92-26.24 53.92-20.32zM71.36-9.68L71.36-9.68L71.36-9.68Q71.36-6.64 70.12-4.36L70.12-4.36L70.12-4.36Q68.88-2.08 67.32-1L67.32-1L67.32-1Q65.76 0.08 63.68 0.72L63.68 0.72L63.68 0.72Q61.04 1.52 58.64 1.52L58.64 1.52L58.64 1.52Q51.92 1.52 48.72-3.52L48.72-3.52L48.72-3.52Q45.52-8.56 45.52-16.36L45.52-16.36L45.52-16.36Q45.52-24.16 49.48-30.24L49.48-30.24L49.48-30.24Q53.44-36.32 61.36-36.32L61.36-36.32L61.36-36.32Q68.56-36.32 71.12-31.28L71.12-31.28L71.12-31.28Q72.16-29.36 72.16-27.64L72.16-27.64L72.16-27.64Q72.16-25.92 72-24.92L72-24.92L72-24.92Q71.84-23.92 70.88-21.92L70.88-21.92L70.88-21.92Q69.92-19.92 68.32-18.32L68.32-18.32L68.32-18.32Q66.72-16.72 63.28-15.28L63.28-15.28L63.28-15.28Q59.84-13.84 55.20-13.36L55.20-13.36L55.20-13.36Q54.56-13.36 54.56-12.80L54.56-12.80L54.56-12.80Q54.56-12.08 55.08-10.68L55.08-10.68L55.08-10.68Q55.60-9.28 56.24-8.32L56.24-8.32L56.24-8.32Q58-6.08 61.44-6.08L61.44-6.08L61.44-6.08Q64.88-6.08 67.28-8.32L67.28-8.32L67.28-8.32Q68.56-9.52 69.36-11.28L69.36-11.28L69.36-11.28Q69.68-11.92 70.20-11.92L70.20-11.92L70.20-11.92Q70.72-11.92 71.04-11.04L71.04-11.04L71.04-11.04Q71.36-10.16 71.36-9.68" fill="#15212b" stroke="none" stroke-width="none" transform="translate(-68.11996459960938,22.416959350585948)" style="fill: rgb(32, 70, 81);"></path>
        </g>
        <g class="path" style="transform: scale(0.91); transform-origin: 11.96px -4.46304px; animation: 1.5s linear -0.462s infinite normal forwards running breath-c7820af4-0a1a-426d-a3b8-283954425978;">
          <path d="M85.76-45.76L85.76-45.76L85.28-16.40L85.28-16.40Q85.28-2.64 86.16 0.08L86.16 0.08L86.16 0.08Q86.40 0.56 86.40 1.04L86.40 1.04L86.40 1.04Q86.40 2 84.08 2L84.08 2L84.08 2Q81.76 2 78.92 0.84L78.92 0.84L78.92 0.84Q76.08-0.32 76.08-2.16L76.08-2.16L76.08-2.16Q77.68-13.36 77.68-32.08L77.68-32.08L77.36-44.32L77.36-44.32Q77.20-46.56 76.44-48.16L76.44-48.16L76.44-48.16Q75.68-49.76 74.96-50.24L74.96-50.24L74.32-50.64L74.32-50.64Q73.76-50.96 73.76-51.36L73.76-51.36L73.76-51.36Q73.76-52.48 77.24-54.12L77.24-54.12L77.24-54.12Q80.72-55.76 84-55.76L84-55.76L84-55.76Q85.28-55.76 85.44-54.88L85.44-54.88L85.44-54.88Q85.76-52.80 85.76-45.76" fill="#15212b" stroke="none" stroke-width="none" transform="translate(-68.11996459960938,22.416959350585948)" style="fill: rgb(36, 112, 116);"></path>
        </g>
        <g class="path" style="transform: scale(0.91); transform-origin: 28.2px -4.46304px; animation: 1.5s linear -0.396s infinite normal forwards running breath-c7820af4-0a1a-426d-a3b8-283954425978;">
          <path d="M102.00-45.76L102.00-45.76L101.52-16.40L101.52-16.40Q101.52-2.64 102.40 0.08L102.40 0.08L102.40 0.08Q102.64 0.56 102.64 1.04L102.64 1.04L102.64 1.04Q102.64 2 100.32 2L100.32 2L100.32 2Q98.00 2 95.16 0.84L95.16 0.84L95.16 0.84Q92.32-0.32 92.32-2.16L92.32-2.16L92.32-2.16Q93.92-13.36 93.92-32.08L93.92-32.08L93.60-44.32L93.60-44.32Q93.44-46.56 92.68-48.16L92.68-48.16L92.68-48.16Q91.92-49.76 91.20-50.24L91.20-50.24L90.56-50.64L90.56-50.64Q90.00-50.96 90.00-51.36L90.00-51.36L90.00-51.36Q90.00-52.48 93.48-54.12L93.48-54.12L93.48-54.12Q96.96-55.76 100.24-55.76L100.24-55.76L100.24-55.76Q101.52-55.76 101.68-54.88L101.68-54.88L101.68-54.88Q102.00-52.80 102.00-45.76" fill="#15212b" stroke="none" stroke-width="none" transform="translate(-68.11996459960938,22.416959350585948)" style="fill: rgb(48, 157, 142);"></path>
        </g>
        <g class="path" style="transform: scale(0.91); transform-origin: 53.92px 5.13696px; animation: 1.5s linear -0.33s infinite normal forwards running breath-c7820af4-0a1a-426d-a3b8-283954425978;">
          <path d="M115.28-30.16L115.28-30.16L115.28-30.16Q113.20-30.08 112.28-30.04L112.28-30.04L112.28-30.04Q111.36-30 111.36-30.48L111.36-30.48L111.36-30.48Q111.36-30.96 111.84-31.44L111.84-31.44L111.84-31.44Q116.96-36.16 129.12-36.16L129.12-36.16L129.12-36.16Q133.28-36.16 135.68-35.44L135.68-35.44L136.48-35.20L136.48-35.20Q137.44-34.80 137.44-34.32L137.44-34.32L137.44-34.32Q137.44-33.92 136.88-33.68L136.88-33.68L136.88-33.68Q134.72-33.04 132.72-31.64L132.72-31.64L132.72-31.64Q130.72-30.24 130.72-29.68L130.72-29.68L131.20-29.12L131.20-29.12Q133.76-27.68 135.16-24.56L135.16-24.56L135.16-24.56Q136.56-21.44 136.72-19.04L136.72-19.04L136.88-16.56L136.88-16.56Q136.88-8.64 132.48-3.52L132.48-3.52L132.48-3.52Q128.08 1.60 120.48 1.60L120.48 1.60L120.48 1.60Q116.64 1.60 113.84 0.24L113.84 0.24L113.84 0.24Q111.04-1.12 109.72-2.84L109.72-2.84L109.72-2.84Q108.40-4.56 107.60-6.72L107.60-6.72L107.60-6.72Q106.64-9.68 106.64-12.84L106.64-12.84L106.64-12.84Q106.64-16 107.72-19.20L107.72-19.20L107.72-19.20Q108.80-22.40 110.20-23.92L110.20-23.92L110.20-23.92Q111.60-25.44 113.36-26.40L113.36-26.40L113.36-26.40Q115.60-27.60 116.96-27.60L116.96-27.60L116.96-27.60Q118.32-27.60 118.32-27.04L118.32-27.04L117.84-26.24L117.84-26.24Q116.08-24.16 115.32-20.80L115.32-20.80L115.32-20.80Q114.56-17.44 114.56-14.84L114.56-14.84L114.56-14.84Q114.56-12.24 115.20-9.68L115.20-9.68L115.20-9.68Q115.84-7.12 116.64-5.88L116.64-5.88L116.64-5.88Q117.44-4.64 118.48-4L118.48-4L118.48-4Q120.00-3.04 121.68-3.04L121.68-3.04L121.68-3.04Q123.36-3.04 124.96-4.36L124.96-4.36L124.96-4.36Q126.56-5.68 127.28-7.84L127.28-7.84L127.28-7.84Q128.72-11.84 128.72-16.08L128.72-16.08L128.72-16.08Q128.72-22.80 125.32-26.48L125.32-26.48L125.32-26.48Q121.92-30.16 115.28-30.16" fill="#15212b" stroke="none" stroke-width="none" transform="translate(-68.11996459960938,22.416959350585948)" style="fill: rgb(85, 200, 157);"></path>
        </g>
      </g>
    </g>
  </g>
  <g style="transform-origin:89px 48px;transform:scale(1) translateX(177px)">
    <g transform="translate(89,48)">
      <g transform="translate(0,0)">
        <g class="path" style="transform: scale(0.91); transform-origin: -52.6px -5.22496px; animation: 1.5s linear -0.264s infinite normal forwards running breath-c7820af4-0a1a-426d-a3b8-283954425978;">
          <path d="M29.72-28.40L29.72-28.40L29.72-28.40Q30.48-30.40 31-32.52L31-32.52L31-32.52Q31.52-34.64 31.52-36.44L31.52-36.44L31.52-36.44Q31.52-38.24 30.24-43.12L30.24-43.12L30.24-43.12Q28-51.28 26.40-52.80L26.40-52.80L25.92-53.36L25.92-53.36Q25.12-53.84 25.12-54.48L25.12-54.48L25.12-54.48Q25.12-55.84 28.72-56.80L28.72-56.80L28.72-56.80Q32.32-57.76 34.60-57.76L34.60-57.76L34.60-57.76Q36.88-57.76 37.28-56.40L37.28-56.40L37.28-56.40Q38.24-53.44 39.40-47.84L39.40-47.84L39.40-47.84Q40.56-42.24 41.40-38.20L41.40-38.20L41.40-38.20Q42.24-34.16 42.72-32L42.72-32L42.72-32Q43.20-29.84 44-26.40L44-26.40L44-26.40Q45.52-20 47.04-15.92L47.04-15.92L47.04-15.92Q47.52-14.80 48.20-14.80L48.20-14.80L48.20-14.80Q48.88-14.80 49.64-16.20L49.64-16.20L49.64-16.20Q50.40-17.60 51.72-20.20L51.72-20.20L51.72-20.20Q53.04-22.80 55.24-29.44L55.24-29.44L55.24-29.44Q57.44-36.08 57.44-40.96L57.44-40.96L57.44-40.96Q57.44-48.48 52.48-51.60L52.48-51.60L52.48-51.60Q52.08-52.08 52.08-52.64L52.08-52.64L52.08-52.64Q52.08-53.20 52.64-53.76L52.64-53.76L52.64-53.76Q53.20-54.16 54.24-54.84L54.24-54.84L54.24-54.84Q55.28-55.52 58.40-56.60L58.40-56.60L58.40-56.60Q61.52-57.68 64-57.68L64-57.68L64-57.68Q66.48-57.68 66.96-57L66.96-57L66.96-57Q67.44-56.32 67.44-54.56L67.44-54.56L67.44-54.56Q67.44-46.80 62.84-33.96L62.84-33.96L62.84-33.96Q58.24-21.12 53.08-11.32L53.08-11.32L53.08-11.32Q47.92-1.52 45.36 0.96L45.36 0.96L45.36 0.96Q44 2.16 43.76 2.16L43.76 2.16L43.76 2.16Q43.04 2.16 42.40 1.04L42.40 1.04L42.40 1.04Q39.68-3.52 36.48-16.80L36.48-16.80L36.48-16.80Q35.04-23.04 34.80-23.84L34.80-23.84L34.80-23.84Q34.56-24.64 34.40-24.64L34.40-24.64L34.40-24.64Q34-24.64 33.68-23.84L33.68-23.84L33.68-23.84Q30.88-17.36 27.44-11.16L27.44-11.16L27.44-11.16Q24-4.96 21.92-2L21.92-2L19.92 0.96L19.92 0.96Q19.12 2.08 18.32 2.08L18.32 2.08L18.32 2.08Q17.52 2.08 16.88 1.04L16.88 1.04L16.88 1.04Q14.72-3.04 11.60-14.72L11.60-14.72L10.56-18.72L10.56-18.72Q10.24-19.84 9.12-24.80L9.12-24.80L9.12-24.80Q4.88-43.76 2.64-48.48L2.64-48.48L2.64-48.48Q1.36-51.12 0.44-51.92L0.44-51.92L0.44-51.92Q-0.48-52.72-1.04-52.88L-1.04-52.88L-1.04-52.88Q-1.92-53.28-1.92-53.88L-1.92-53.88L-1.92-53.88Q-1.92-54.48-1.28-55.04L-1.28-55.04L-1.28-55.04Q-0.32-55.76 2.96-56.76L2.96-56.76L2.96-56.76Q6.24-57.76 8.48-57.76L8.48-57.76L8.48-57.76Q10.72-57.76 11.12-56.40L11.12-56.40L11.12-56.40Q12.72-53.44 14.88-43.12L14.88-43.12L14.88-43.12Q19.44-21.52 21.60-15.92L21.60-15.92L21.60-15.92Q22-14.80 22.72-14.80L22.72-14.80L22.72-14.80Q23.44-14.80 24-16L24-16L24-16Q24.72-16.72 26.84-21.56L26.84-21.56L26.84-21.56Q28.96-26.40 29.72-28.40" fill="#15212b" stroke="none" stroke-width="none" transform="translate(-85.36001586914062,22.575037170410152)" style="fill: rgb(21, 33, 43);"></path>
        </g>
        <g class="path" style="transform: scale(0.91); transform-origin: -5.72002px 5.29504px; animation: 1.5s linear -0.198s infinite normal forwards running breath-c7820af4-0a1a-426d-a3b8-283954425978;">
          <path d="M72.88-30.16L72.88-30.16L72.88-30.16Q70.80-30.08 69.88-30.04L69.88-30.04L69.88-30.04Q68.96-30 68.96-30.48L68.96-30.48L68.96-30.48Q68.96-30.96 69.44-31.44L69.44-31.44L69.44-31.44Q74.56-36.16 86.72-36.16L86.72-36.16L86.72-36.16Q90.88-36.16 93.28-35.44L93.28-35.44L94.08-35.20L94.08-35.20Q95.04-34.80 95.04-34.32L95.04-34.32L95.04-34.32Q95.04-33.92 94.48-33.68L94.48-33.68L94.48-33.68Q92.32-33.04 90.32-31.64L90.32-31.64L90.32-31.64Q88.32-30.24 88.32-29.68L88.32-29.68L88.80-29.12L88.80-29.12Q91.36-27.68 92.76-24.56L92.76-24.56L92.76-24.56Q94.16-21.44 94.32-19.04L94.32-19.04L94.48-16.56L94.48-16.56Q94.48-8.64 90.08-3.52L90.08-3.52L90.08-3.52Q85.68 1.60 78.08 1.60L78.08 1.60L78.08 1.60Q74.24 1.60 71.44 0.24L71.44 0.24L71.44 0.24Q68.64-1.12 67.32-2.84L67.32-2.84L67.32-2.84Q66-4.56 65.20-6.72L65.20-6.72L65.20-6.72Q64.24-9.68 64.24-12.84L64.24-12.84L64.24-12.84Q64.24-16 65.32-19.20L65.32-19.20L65.32-19.20Q66.40-22.40 67.80-23.92L67.80-23.92L67.80-23.92Q69.20-25.44 70.96-26.40L70.96-26.40L70.96-26.40Q73.20-27.60 74.56-27.60L74.56-27.60L74.56-27.60Q75.92-27.60 75.92-27.04L75.92-27.04L75.44-26.24L75.44-26.24Q73.68-24.16 72.92-20.80L72.92-20.80L72.92-20.80Q72.16-17.44 72.16-14.84L72.16-14.84L72.16-14.84Q72.16-12.24 72.80-9.68L72.80-9.68L72.80-9.68Q73.44-7.12 74.24-5.88L74.24-5.88L74.24-5.88Q75.04-4.64 76.08-4L76.08-4L76.08-4Q77.60-3.04 79.28-3.04L79.28-3.04L79.28-3.04Q80.96-3.04 82.56-4.36L82.56-4.36L82.56-4.36Q84.16-5.68 84.88-7.84L84.88-7.84L84.88-7.84Q86.32-11.84 86.32-16.08L86.32-16.08L86.32-16.08Q86.32-22.80 82.92-26.48L82.92-26.48L82.92-26.48Q79.52-30.16 72.88-30.16" fill="#15212b" stroke="none" stroke-width="none" transform="translate(-85.36001586914062,22.575037170410152)" style="fill: rgb(32, 70, 81);"></path>
        </g>
        <g class="path" style="transform: scale(0.91); transform-origin: 24.88px 5.01504px; animation: 1.5s linear -0.132s infinite normal forwards running breath-c7820af4-0a1a-426d-a3b8-283954425978;">
          <path d="M122.64-27.52L122.24-21.44L122.56-18.64L122.56-18.64Q122.56-17.12 119.68-17.12L119.68-17.12L119.68-17.12Q113.84-17.12 113.84-21.52L113.84-21.52L113.84-21.52Q113.84-22.56 114.40-24.40L114.40-24.40L114.40-24.40Q114.96-26.24 114.96-27.60L114.96-27.60L114.96-27.60Q114.96-28.96 114.16-29.96L114.16-29.96L114.16-29.96Q113.36-30.96 111.84-30.96L111.84-30.96L111.84-30.96Q110.32-30.96 109.24-29.88L109.24-29.88L109.24-29.88Q108.16-28.80 107.92-27.68L107.92-27.68L107.60-26.56L107.60-26.56Q107.12-24.08 107.12-18.28L107.12-18.28L107.12-18.28Q107.12-12.48 107.28-9.16L107.28-9.16L107.28-9.16Q107.44-5.84 107.60-4.60L107.60-4.60L107.60-4.60Q107.76-3.36 107.76-3.12L107.76-3.12L107.76-3.12Q107.76-1.12 105.28 0.12L105.28 0.12L105.28 0.12Q102.80 1.36 100.32 1.36L100.32 1.36L100.32 1.36Q97.84 1.36 97.84 0.32L97.84 0.32L98.24-2.16L98.24-2.16Q99.36-9.12 99.36-20.32L99.36-20.32L99.36-20.32Q99.36-31.52 98.56-35.52L98.56-35.52L98.56-35.52Q98.56-36.48 100.24-36.48L100.24-36.48L100.24-36.48Q104.56-36.48 106.00-33.52L106.00-33.52L106.00-33.52Q106.08-33.20 106.28-33.20L106.28-33.20L106.28-33.20Q106.48-33.20 107.36-33.92L107.36-33.92L107.36-33.92Q110.00-36.08 113.60-36.08L113.60-36.08L113.60-36.08Q115.84-36.08 118.08-35.20L118.08-35.20L118.08-35.20Q122.64-33.36 122.64-27.52L122.64-27.52" fill="#15212b" stroke="none" stroke-width="none" transform="translate(-85.36001586914062,22.575037170410152)" style="fill: rgb(36, 112, 116);"></path>
        </g>
        <g class="path" style="transform: scale(0.91); transform-origin: 42.96px -4.30496px; animation: 1.5s linear -0.066s infinite normal forwards running breath-c7820af4-0a1a-426d-a3b8-283954425978;">
          <path d="M134-45.76L134-45.76L133.52-16.40L133.52-16.40Q133.52-2.64 134.40 0.08L134.40 0.08L134.40 0.08Q134.64 0.56 134.64 1.04L134.64 1.04L134.64 1.04Q134.64 2 132.32 2L132.32 2L132.32 2Q130 2 127.16 0.84L127.16 0.84L127.16 0.84Q124.32-0.32 124.32-2.16L124.32-2.16L124.32-2.16Q125.92-13.36 125.92-32.08L125.92-32.08L125.60-44.32L125.60-44.32Q125.44-46.56 124.68-48.16L124.68-48.16L124.68-48.16Q123.92-49.76 123.20-50.24L123.20-50.24L122.56-50.64L122.56-50.64Q122.00-50.96 122.00-51.36L122.00-51.36L122.00-51.36Q122.00-52.48 125.48-54.12L125.48-54.12L125.48-54.12Q128.96-55.76 132.24-55.76L132.24-55.76L132.24-55.76Q133.52-55.76 133.68-54.88L133.68-54.88L133.68-54.88Q134-52.80 134-45.76" fill="#15212b" stroke="none" stroke-width="none" transform="translate(-85.36001586914062,22.575037170410152)" style="fill: rgb(48, 157, 142);"></path>
        </g>
        <g class="path" style="transform: scale(0.91); transform-origin: 68.56px -4.74496px; animation: 1.5s linear 0s infinite normal forwards running breath-c7820af4-0a1a-426d-a3b8-283954425978;">
          <path d="M155.44-35.92L155.44-35.92L155.44-35.92Q156.88-35.92 158.04-35.56L158.04-35.56L158.04-35.56Q159.20-35.20 159.28-35.20L159.28-35.20L159.76-35.60L159.44-44.32L159.44-44.32Q159.28-46.56 158.48-48.16L158.48-48.16L158.48-48.16Q157.68-49.76 157.04-50.24L157.04-50.24L156.32-50.64L156.32-50.64Q155.84-50.96 155.84-51.36L155.84-51.36L155.84-51.36Q155.84-52.56 159.56-54.16L159.56-54.16L159.56-54.16Q163.28-55.76 165.36-55.76L165.36-55.76L165.36-55.76Q167.44-55.76 167.60-54.88L167.60-54.88L167.60-54.88Q168.00-52.16 168.00-44.52L168.00-44.52L168.00-44.52Q168.00-36.88 167.64-29.52L167.64-29.52L167.64-29.52Q167.28-22.16 167.28-12.84L167.28-12.84L167.28-12.84Q167.28-3.52 168.48-1.12L168.48-1.12L168.48-1.12Q168.80-0.56 168.80-0.08L168.80-0.08L168.80-0.08Q168.80 1.12 165.36 1.12L165.36 1.12L165.36 1.12Q158.80 1.12 158.80-2L158.80-2L158.80-2Q158.64-3.28 158.64-5.96L158.64-5.96L158.64-5.96Q158.64-8.64 159.16-15.96L159.16-15.96L159.16-15.96Q159.68-23.28 159.68-27.24L159.68-27.24L159.68-27.24Q159.68-31.20 155.72-31.20L155.72-31.20L155.72-31.20Q151.76-31.20 149.68-26.56L149.68-26.56L149.68-26.56Q147.60-21.92 147.60-17.28L147.60-17.28L147.60-17.28Q147.60-7.44 152.56-7.44L152.56-7.44L152.56-7.44Q153.28-7.44 153.96-7.72L153.96-7.72L153.96-7.72Q154.64-8 154.80-8L154.80-8L154.80-8Q155.44-8 155.80-7.20L155.80-7.20L155.80-7.20Q156.16-6.40 156.16-5.60L156.16-5.60L156.16-5.60Q156.16-2.88 154.00-1L154.00-1L154.00-1Q151.84 0.88 148.72 0.88L148.72 0.88L148.72 0.88Q143.92 0.88 141.48-3.32L141.48-3.32L141.48-3.32Q139.04-7.52 139.04-13.76L139.04-13.76L139.04-13.76Q139.04-21.68 142.80-28.48L142.80-28.48L142.80-28.48Q144.72-31.84 148.00-33.88L148.00-33.88L148.00-33.88Q151.28-35.92 155.44-35.92" fill="#15212b" stroke="none" stroke-width="none" transform="translate(-85.36001586914062,22.575037170410152)" style="fill: rgb(85, 200, 157);"></path>
        </g>
      </g>
    </g>
  </g>
  <style id="breath-c7820af4-0a1a-426d-a3b8-283954425978" data-anikit="">@keyframes breath-c7820af4-0a1a-426d-a3b8-283954425978
    {
      0% {
        animation-timing-function: cubic-bezier(0.9647,0.2413,-0.0705,0.7911);
        transform: scale(0.9099999999999999);
      }
      51% {
        animation-timing-function: cubic-bezier(0.9226,0.2631,-0.0308,0.7628);
        transform: scale(1.02994);
      }
      100% {
        transform: scale(0.9099999999999999);
      }
    }</style>

</svg>